#define 0_width 11
#define 0_height 11
static unsigned char 0_bits[] = {
   0xf8, 0x00, 0x8c, 0x01, 0x06, 0x03, 0x03, 0x06, 0x71, 0x04, 0x71, 0x04,
   0x71, 0x04, 0x03, 0x06, 0x06, 0x03, 0x8c, 0x01, 0xf8, 0x00 };
