#define 2_width 11
#define 2_height 11
static unsigned char 2_bits[] = {
   0x70, 0x00, 0xd8, 0x00, 0x8c, 0x01, 0x04, 0x01, 0x8c, 0x01, 0xd8, 0x00,
   0x70, 0x00, 0x20, 0x00, 0x20, 0x00, 0xf8, 0x00, 0x20, 0x00 };
