#define 3_width 11
#define 3_height 11
static unsigned char 3_bits[] = {
   0xf8, 0x00, 0xac, 0x01, 0x26, 0x03, 0x23, 0x06, 0x21, 0x04, 0xff, 0x07,
   0x21, 0x04, 0x23, 0x06, 0x26, 0x03, 0xac, 0x01, 0xf8, 0x00 };
