#define 4_width 11
#define 4_height 11
static unsigned char 4_bits[] = {
   0x80, 0x07, 0x00, 0x07, 0x80, 0x07, 0xfc, 0x05, 0xe6, 0x00, 0xc3, 0x00,
   0x81, 0x00, 0x81, 0x00, 0xc3, 0x00, 0x66, 0x00, 0x3c, 0x00 };
