#define 5_width 11
#define 5_height 11
static unsigned char 5_bits[] = {
   0x9c, 0x00, 0xb6, 0x00, 0xa3, 0x00, 0xb0, 0x00, 0x98, 0x00, 0x8c, 0x00,
   0x86, 0x00, 0xff, 0x07, 0x80, 0x00, 0x80, 0x00, 0x80, 0x00 };
