#define 6_width 11
#define 6_height 11
static unsigned char 6_bits[] = {
   0x08, 0x00, 0x3e, 0x00, 0x08, 0x00, 0xe8, 0x01, 0x38, 0x03, 0x18, 0x02,
   0x08, 0x03, 0x88, 0x01, 0x88, 0x00, 0x88, 0x01, 0x08, 0x03 };
