#define 7_width 11
#define 7_height 11
static unsigned char 7_bits[] = {
   0x70, 0x00, 0xf8, 0x00, 0xac, 0x01, 0x20, 0x00, 0x70, 0x00, 0xd8, 0x00,
   0x8c, 0x01, 0x24, 0x01, 0x8c, 0x01, 0xd8, 0x00, 0x70, 0x00 };
