#define 8_width 11
#define 8_height 11
static unsigned char 8_bits[] = {
   0x22, 0x02, 0x77, 0x07, 0x22, 0x02, 0x22, 0x02, 0x26, 0x03, 0x24, 0x01,
   0xac, 0x01, 0xf8, 0x00, 0x20, 0x00, 0xf8, 0x00, 0x20, 0x00 };
